<svg width="90" height="90" viewBox="0 0 90 90" fill="none" xmlns="http://www.w3.org/2000/svg">
<path d="M56.0278 39.7702C55.2093 37.3346 53.9606 36.4627 52.5164 36.4627C50.7557 36.4627 48.7026 37.7551 46.7718 39.0938C45.6229 39.8926 41.1749 44.8046 38.7492 44.8046C38.4712 44.8121 38.198 44.7314 37.9687 44.574C35.6006 42.8977 38.5678 35.5936 38.5678 32.0907C38.5678 28.7002 37.9518 27.4051 37.0082 27.4051C34.3996 27.4051 29.2893 37.3374 27.8648 40.2033C27.4626 41.0119 26.9015 41.3311 26.2504 41.3311C23.9737 41.3311 20.5874 37.4147 19.0321 36.8143C18.8001 36.7201 18.5527 36.6696 18.3023 36.6652C15.7035 36.6652 15.7598 43.1297 15.7992 44.8454C17.2195 44.4572 18.5512 44.2182 19.7156 44.2182C22.6504 44.2182 24.5165 45.7383 24.0299 50.2004C23.9203 51.203 23.286 54.398 24.3239 55.1026C24.4905 55.2109 24.6863 55.2654 24.8849 55.2586C26.0817 55.2586 27.9773 53.7835 28.6818 53.3335C29.6296 52.726 30.6239 52.2816 31.4648 52.2816C32.4773 52.2816 33.2676 52.9243 33.494 54.7032C33.629 55.7565 33.1129 59.7643 34.1451 60.4041C34.2965 60.4953 34.4704 60.5425 34.6471 60.5405C36.5526 60.5405 39.8053 55.779 41.2776 55.2333C41.9689 54.9773 42.7004 54.8473 43.4376 54.8494C45.3965 54.8494 47.2598 55.7143 49.1653 56.4455C49.4859 56.5693 49.7475 56.6227 49.9598 56.6227C51.1115 56.6227 50.7768 55.0238 49.791 54.0015C48.3553 52.5052 46.0771 53.1619 44.4796 52.0904C42.4504 50.7291 45.2756 47.994 46.3725 47.1826C47.6817 46.2122 50.5842 44.6527 52.9003 44.6527C53.9732 44.6527 54.9196 44.9874 55.5215 45.8677C56.6592 47.5313 54.7664 49.6322 55.2445 51.4997C55.4456 52.2746 55.9321 52.5418 56.5087 52.5418C57.7364 52.5418 59.3634 51.3296 59.4759 51.2143C60.2242 50.4368 61.0294 49.7162 61.8848 49.0585C57.6098 48.1121 57.247 43.4068 56.0278 39.7702Z" fill="white"/>
<path d="M20.9756 36.2657C20.9756 36.2657 24.6726 39.5268 26.2518 39.5268C26.5542 39.5268 26.7806 39.4073 26.886 39.1176C29.1585 32.8949 33.9637 25.7835 37.101 25.7835C38.4693 25.7835 39.5198 27.1377 39.9023 30.5127C40.3973 34.882 37.3753 41.504 38.8279 43.0129C38.8596 43.0449 38.8976 43.0699 38.9395 43.0864C38.9814 43.1028 39.0262 43.1104 39.0712 43.1085C40.7039 43.1085 47.1543 34.8482 52.6753 34.8482C53.1001 34.8472 53.5235 34.8996 53.9353 35.0043C58.9092 36.2798 56.7534 44.7609 60.7907 47.1838C61.4592 47.591 62.2257 47.8092 63.0084 47.8152C64.4962 47.8152 65.8546 46.9673 66.1795 45.2137C66.9993 40.7868 52.9396 32.2059 60.546 32.2059C61.6373 32.2059 63.1743 32.3816 65.264 32.7726C66.5085 24.2451 66.074 21.8812 64.9603 21.8812C63.6904 21.8812 61.536 24.951 59.9681 25.4798C59.9227 25.495 59.8753 25.503 59.8274 25.5037C58.9317 25.5037 58.9626 22.2777 57.4298 22.2777C56.4398 22.2777 54.7987 23.6235 51.8371 28.0476C50.3099 30.3299 49.1667 31.2327 48.2639 31.2327C44.8298 31.2327 44.9268 18.097 40.8065 18.097C39.974 18.097 38.9699 18.6327 37.7296 19.9195C35.8256 21.8966 34.0481 22.597 32.3845 22.597C28.3331 22.597 24.9764 18.4359 22.2243 18.4359C21.1387 18.4359 20.1445 19.0841 19.2417 20.8954C17.3728 24.6515 23.7009 24.4574 20.9756 36.2657ZM25.8173 37.956C25.0776 37.6241 23.7642 36.7354 22.5323 35.7229C22.7601 34.6077 22.9007 33.6065 22.9823 32.684C23.3296 32.1018 23.7571 31.5281 24.2789 30.9965C26.4037 28.8295 29.1262 28.1446 30.4607 29.3962C28.5581 32.0188 26.8832 35.2293 25.8173 37.956ZM57.0515 32.3676C56.3568 34.0115 57.7082 35.7468 59.7768 38.0151C59.6325 38.1728 59.4646 38.307 59.279 38.4131C59.082 38.5223 58.8681 38.5978 58.6462 38.6366C57.9881 36.4148 56.8842 34.2815 54.2784 33.6135C53.8955 33.5201 53.5048 33.4622 53.1112 33.4406C52.4053 31.1456 52.7329 28.9898 54.0703 28.2445C55.544 27.419 57.6928 28.5974 59.1595 30.884C58.3424 31.0401 57.4537 31.417 57.0515 32.3676Z" fill="white"/>
<path d="M67.5099 45.2448C67.2019 47.2571 70.1269 47.6171 68.7291 50.9134C68.0119 52.5995 61.9383 56.4863 62.3855 57.3371C63.0478 58.5816 63.8438 59.0654 64.6496 59.0654C66.2442 59.0654 67.8685 57.1726 68.5224 55.5329C69.3788 53.3884 69.5996 47.7591 71.6864 46.7157C72.0394 46.5371 72.3882 46.4584 72.7327 46.4584C74.7928 46.4584 76.718 49.2441 78.5742 49.621C79.0271 47.6045 78.7036 45.512 79.1649 43.4841C71.3292 43.3857 83.5186 32.6771 76.5535 28.3079C76.178 28.073 75.863 27.9676 75.5874 27.969C73.395 27.969 73.9055 34.6824 68.3663 34.6824C67.9247 34.6824 67.4424 34.6388 66.9178 34.546C64.8914 34.1888 63.4922 34.0229 62.5768 34.0229C57.2414 34.0257 68.3747 39.638 67.5099 45.2448Z" fill="white"/>
<path d="M81.3895 34.7244C81.5893 33.5165 81.5998 32.2849 81.4205 31.0738C80.917 27.7002 78.2803 24.9552 75.5438 24.9538C74.6086 24.9538 72.3698 25.3433 71.3109 28.6663C70.5988 28.3687 69.8801 28.0874 69.1552 27.8225C69.7809 23.6108 69.5461 20.7238 68.4225 19.2486C68.1515 18.8795 67.7971 18.5797 67.3883 18.3734C66.9795 18.1672 66.5277 18.0604 66.0698 18.0617C64.5989 18.0617 62.9466 19.0461 60.8934 21.1513L60.8189 20.9516C60.383 19.7732 59.6545 17.8016 57.6998 17.8016C56.3639 17.8016 54.5948 18.6257 50.8767 24.0453C49.7985 23.966 48.7187 23.9084 47.6381 23.8724L47.4384 23.1467C46.2783 18.8872 44.962 14.061 41.2537 14.0596H41.2523C39.7406 14.0596 38.1502 14.9497 36.3881 16.7793C35.0761 18.1433 33.7781 18.8057 32.4183 18.8057C30.7603 18.8057 29.063 17.855 27.4205 16.9367C25.7597 16.0086 24.0441 15.0482 22.2694 15.0482C20.1656 15.0482 18.4556 16.3377 17.0409 18.9913C15.4252 22.0232 16.3237 24.0257 17.1928 25.9635C17.5725 26.8086 17.9705 27.7044 18.2531 28.8041C8.83547 32.8485 2.8125 38.9727 2.8125 45.8394C2.8125 64.8702 21.7012 87.1874 45 87.1874C68.3002 87.1874 87.1875 64.8702 87.1875 45.8394C87.1875 41.781 85.0528 37.9897 81.3895 34.7244ZM45 84.32C27.2658 84.32 12.3539 70.4038 7.39406 55.8308C14.3677 62.9872 28.5834 67.8908 45 67.8908C61.4166 67.8908 75.6295 62.9872 82.6031 55.8322C77.6433 70.4024 62.7328 84.32 45 84.32ZM60.6586 59.7303C60.3197 60.7963 59.2664 62.4163 57.96 63.5568C55.9434 65.316 53.4853 65.6943 52.3139 64.4652C51.3295 63.4274 51.4912 61.4994 52.6219 59.6952C54.9366 55.9996 58.2553 55.1896 59.6953 55.9208C59.6672 56.0221 59.6278 56.1191 59.6081 56.2274C59.4084 57.351 59.7698 58.5294 60.6586 59.7303ZM82.2698 41.6628C80.8931 41.6628 80.2308 45.4766 80.1323 47.8742C80.0452 49.9878 79.4348 50.6924 78.5616 50.6924C77.3044 50.6924 75.5016 49.2355 73.928 48.4114C73.4245 48.1471 73.0378 48.0303 72.7341 48.0303C71.8327 48.0303 71.6681 49.0836 71.3587 50.5743C70.837 53.09 70.2155 55.7 68.8514 57.8699C67.8502 59.4632 66.3019 60.5713 64.7508 60.5713C63.7312 60.5713 62.7103 60.0932 61.8413 58.9611C58.4241 54.5202 65.9306 53.6118 67.4269 50.5672C68.2931 48.8066 68.0161 48.1935 67.223 48.1935C65.662 48.1935 62.1028 50.5757 61.3687 51.2493C60.0722 52.4347 58.583 54.1813 56.7605 54.1813C56.4525 54.1813 56.1333 54.1307 55.8042 54.0196C53.8706 53.3671 53.5992 50.9343 54.0084 49.1272C54.3487 47.6169 55.132 46.2599 53.1127 46.1825C53.0414 46.1797 52.9702 46.1783 52.8989 46.1783C51.5981 46.1783 50.2692 46.6058 49.0894 47.1402C47.6578 47.7899 45.6778 48.9514 45.1589 50.6572C44.9972 51.1818 48.4692 51.7288 49.0092 51.9369C51.7148 52.9944 53.0381 58.0864 50.2073 58.0864C49.8417 58.0864 49.4072 58.0007 48.8967 57.815C47.122 57.1527 45.3375 56.2161 43.4798 56.2161C42.8695 56.2161 42.2522 56.3174 41.6264 56.5635C40.3298 57.0725 39.6211 58.5252 38.6002 59.435C37.0898 60.7907 35.7539 61.5191 34.7048 61.5191C33.2592 61.5191 32.3592 60.1353 32.3016 57.0964C32.2509 54.6271 31.777 53.8269 31.0106 53.8269C29.6437 53.8269 27.3487 56.3793 24.8836 56.5677C24.8119 56.5719 24.743 56.5747 24.6769 56.5747C21.3877 56.5747 22.6673 50.3211 22.9233 48.3932C23.2031 46.2908 21.9347 45.5441 19.9814 45.5441C17.7862 45.5441 14.7333 46.4863 12.0445 47.5086C12.1739 47.6239 12.3089 47.7252 12.4327 47.8518C14.8936 50.3071 15.7022 53.5457 14.2439 55.0799C12.7828 56.6113 9.60609 55.8618 7.14797 53.4036C4.68984 50.9455 3.87844 47.7069 5.33953 46.1741C6.58687 44.8564 8.52609 45.2994 10.1756 46.1783C12.3314 45.4541 14.5181 44.8227 14.4675 43.8046C14.0836 36.1039 16.2675 34.6668 17.9536 34.6682C18.5963 34.6842 19.225 34.8596 19.7831 35.1786C21.3047 25.3785 15.5967 24.7133 18.2784 19.6803C19.5483 17.2996 20.8744 16.4868 22.2722 16.4868C25.2773 16.4868 28.6116 20.2428 32.4211 20.2428C33.9947 20.2428 35.6498 19.6002 37.395 17.7875C38.9602 16.1619 40.2202 15.4968 41.2566 15.4968C45.893 15.4982 46.0167 28.8139 48.6675 28.8139C49.1766 28.8139 49.7798 28.3232 50.5238 27.1532C54.412 21.0472 56.4806 19.2374 57.7013 19.2374C59.4816 19.2374 59.4577 23.0877 60.6347 23.0877C60.8766 23.0877 61.1719 22.9232 61.5431 22.528C63.4964 20.4482 64.9997 19.4961 66.0713 19.4961C68.5983 19.4961 68.7234 24.785 66.6647 33.0243C66.6647 33.0243 67.1245 33.141 67.7981 33.141C69.2339 33.141 71.6344 32.6136 72.5738 29.3174C73.1658 27.2418 74.3175 26.3896 75.5466 26.3896C77.4872 26.3896 79.6177 28.513 80.0325 31.2903C80.7877 36.3627 77.4422 39.9557 77.7038 41.4857C77.7487 41.7571 77.8823 41.8639 78.082 41.8639C78.8316 41.8639 80.5148 40.3382 81.9844 40.3382C83.0798 40.3382 84.0586 41.1889 84.4355 44.1618C83.5748 42.3603 82.8577 41.6628 82.2698 41.6628Z" fill="white"/>
</svg>
